<?xml version="1.0" encoding="UTF-8" standalone="no"?>
<!-- Created with Inkscape (http://www.inkscape.org/) -->

<svg
   width="48"
   height="48"
   viewBox="0 0 48 48"
   version="1.1"
   id="svg1"
   inkscape:version="1.3.1 (9b9bdc1480, 2023-11-25, custom)"
   sodipodi:docname="logo.svg"
   xmlns:inkscape="http://www.inkscape.org/namespaces/inkscape"
   xmlns:sodipodi="http://sodipodi.sourceforge.net/DTD/sodipodi-0.dtd"
   xmlns="http://www.w3.org/2000/svg"
   xmlns:svg="http://www.w3.org/2000/svg">
  <sodipodi:namedview
     id="namedview1"
     pagecolor="#ffffff"
     bordercolor="#000000"
     borderopacity="0.25"
     inkscape:showpageshadow="2"
     inkscape:pageopacity="0.0"
     inkscape:pagecheckerboard="0"
     inkscape:deskcolor="#d1d1d1"
     inkscape:document-units="px"
     inkscape:zoom="16.206792"
     inkscape:cx="27.36507"
     inkscape:cy="24.4342"
     inkscape:window-width="1920"
     inkscape:window-height="1008"
     inkscape:window-x="0"
     inkscape:window-y="0"
     inkscape:window-maximized="1"
     inkscape:current-layer="layer1"
     showgrid="false" />
  <defs
     id="defs1" />
  <g
     inkscape:groupmode="layer"
     id="layer1"
     inkscape:label="Layer 1">
    <path
       d="M 34,34 V 14 H 24 a 3,3 0 0 1 -3,3 3,3 0 0 1 -3,-3 h -4 v 20 z"
       style="fill:#000000;stroke:none"
       id="path1" />
    <path
       d="M 34,34 H 14 V 14 H 8 v 26 h 26 z"
       style="fill:#000000;stroke:#000000;stroke-width:1;fill-opacity:1"
       id="path3" />
    <path
       d="m 14,8 v 6 h 4 a 3,3 0 0 0 3,3 3,3 0 0 0 3,-3 h 10 v 20 h 6 V 8 H 30 a 3,3 0 0 1 -3,3 3,3 0 0 1 -3,-3 z"
       style="fill:#ffffff;stroke:#000000;stroke-width:1"
       id="path4" />
  </g>
</svg>
