<?xml version="1.0" encoding="UTF-8" standalone="no"?>
<!-- Created with Inkscape (http://www.inkscape.org/) -->

<svg
   width="64"
   height="64"
   viewBox="0 0 64 64"
   version="1.1"
   id="svg1"
   inkscape:version="1.3.1 (9b9bdc1480, 2023-11-25, custom)"
   sodipodi:docname="logo.svg"
   xmlns:inkscape="http://www.inkscape.org/namespaces/inkscape"
   xmlns:sodipodi="http://sodipodi.sourceforge.net/DTD/sodipodi-0.dtd"
   xmlns="http://www.w3.org/2000/svg"
   xmlns:svg="http://www.w3.org/2000/svg">
  <sodipodi:namedview
     id="namedview1"
     pagecolor="#ffffff"
     bordercolor="#000000"
     borderopacity="0.25"
     inkscape:showpageshadow="2"
     inkscape:pageopacity="0.0"
     inkscape:pagecheckerboard="0"
     inkscape:deskcolor="#d1d1d1"
     inkscape:document-units="px"
     inkscape:zoom="16.206792"
     inkscape:cx="27.36507"
     inkscape:cy="24.4342"
     inkscape:window-width="1920"
     inkscape:window-height="1008"
     inkscape:window-x="0"
     inkscape:window-y="0"
     inkscape:window-maximized="1"
     inkscape:current-layer="layer1"
     showgrid="false" />
  <defs
     id="defs1" />
  <g
     inkscape:groupmode="layer"
     id="layer1"
     inkscape:label="Layer 1">
    <path
       d="M 12,0 V 12 H 19 a 7,7 0 0 0 7,7 7,7 0 0 0 7,-7 H 52 V 52 H 64 V 0 H 45 a 7,7 0 0 1 -7,7 7,7 0 0 1 -7,-7 z"
       style="fill:#ffffff;stroke:none"
       id="inner" />
    <path
       d="M 52,52 H 64 V 0 H 45 a 7,7 0 0 1 -7,7 7,7 0 0 1 -7,-7 H 12 V 12"
       style="fill:none;stroke:#000000;stroke-width:1.5"
       id="inner_outline" />
    <path
       d="M 52,64 V 12 H 33 a 7,7 0 0 1 -7,7 7,7 0 0 1 -7,-7 H 0 V 64 z"
       style="fill:#000000;stroke:#000000;stroke-width:1.5"
       id="outer" />
  </g>
</svg>
